# xmcd
#
# Track frame offsets:
#	150
#	7529
#	20338
#	54953
#	68198
#	107958
#	121512
#	135934
#	153076
#	176631
#
# Disc length: 2633 seconds
#
# Revision: 1
# Processed by: cddbd v1.5.2PL0 Copyright (c) Steve Scherf et al.
# Submitted via: audiograbber 1.83.01
#
DISCID=670a470a
DTITLE=Adai - We Are All Dead
DYEAR=2010
DGENRE=
TTITLE0=The March...
TTITLE1=And Termination
TTITLE2=Home
TTITLE3=A Mark Of Ownership
TTITLE4=Hawkins
TTITLE5=Trigger
TTITLE6=Powder
TTITLE7=Ammunition
TTITLE8=Bodies
TTITLE9=Graves
EXTD=
EXTT0=
EXTT1=
EXTT2=
EXTT3=
EXTT4=
EXTT5=
EXTT6=
EXTT7=
EXTT8=
EXTT9=
PLAYORDER=
